<?xml version="1.0" encoding="UTF-8"?>
<!DOCTYPE svg PUBLIC "-//W3C//DTD SVG 1.1//EN" "http://www.w3.org/Graphics/SVG/1.1/DTD/svg11.dtd">
<svg version="1.1" xmlns="http://www.w3.org/2000/svg" xmlns:xlink="http://www.w3.org/1999/xlink" x="0" y="0" width="917" height="804" viewBox="0, 0, 917, 804">
  <g id="Layer_1">
    <path d="M666.547,88.444 C669.965,89.698 713.344,125.789 713.516,130.371 C714.102,145.593 696.395,216.113 696.977,231.339 C697.219,237.847 698.141,244.722 697.734,251.234 C697.18,259.988 692.258,266.3 689.902,274.773 C687.281,284.253 686.969,302.574 695.531,305.281 C712.23,310.554 742.09,279.949 754.68,270.652 L727.602,257.128 L764.652,223.855 L741.016,214.05 L769.586,183.222 L744.281,176.589 L765.746,149.25 L740.824,139.226 L754.992,107.832 L732.594,110.074 L741.742,75.581 L719.656,83.245 L721.859,44.253 L703.832,56.823 L699.574,25.878 L682.195,37.089 L674.43,11.245 L653.234,28.464 L643.57,7.065 L629.758,22.859 L614.562,4.128 L599.34,26.401 L587.328,7.87 L575.977,30.878 L558.023,15.046 L552.094,36.05 L535.766,24.441 L533.035,44.355 L513.441,33.394 L507.914,54.327 L487.102,43.808 L482.023,67.995 C482.023,67.995 666.539,88.444 666.547,88.444" fill="#AEB378"/>
    <path d="M666.547,88.444 C669.965,89.698 713.344,125.789 713.516,130.371 C714.102,145.593 696.395,216.113 696.977,231.339 C697.219,237.847 698.141,244.722 697.734,251.234 C697.18,259.988 692.258,266.3 689.902,274.773 C687.281,284.253 686.969,302.574 695.531,305.281 C712.23,310.554 742.09,279.949 754.68,270.652 L727.602,257.128 L764.652,223.855 L741.016,214.05 L769.586,183.222 L744.281,176.589 L765.746,149.25 L740.824,139.226 L754.992,107.832 L732.594,110.074 L741.742,75.581 L719.656,83.245 L721.859,44.253 L703.832,56.823 L699.574,25.878 L682.195,37.089 L674.43,11.245 L653.234,28.464 L643.57,7.065 L629.758,22.859 L614.562,4.128 L599.34,26.401 L587.328,7.87 L575.977,30.878 L558.023,15.046 L552.094,36.05 L535.766,24.441 L533.035,44.355 L513.441,33.394 L507.914,54.327 L487.102,43.808 L482.023,67.995 C482.023,67.995 666.539,88.444 666.547,88.444 z" fill-opacity="0" stroke="#1A1919" stroke-width="7.087" stroke-linecap="round" stroke-linejoin="round"/>
    <path d="M734.117,249.5 C747.57,211.949 742.414,147.062 729.902,108.757 C718.324,73.366 700.121,52.495 686.93,44.007 C658.094,25.456 603.914,14.382 542.758,38.601 C528.457,44.276 501.227,66.698 486.727,71.542 C473.859,75.847 460.629,73.034 448.852,77.585 C442.594,80.019 474.402,71.941 469.438,77.058 C451.801,95.202 507.672,91.597 513.844,91.362 C559.16,89.671 591.508,90.214 607.055,114.714 C626.57,145.457 582.766,185.769 582.766,185.769 C561.211,207.918 543.086,225.613 526.594,245.23 C498.82,278.261 517.961,333.386 484.711,366.441 C465.906,385.144 545.941,378.394 572.055,381.652 C618.441,387.457 570.574,390.515 607.246,372.933 C714.617,321.425 719.523,290.214 734.117,249.5" fill="#A3AC73"/>
    <path d="M734.117,249.5 C747.57,211.949 742.414,147.062 729.902,108.757 C718.324,73.366 700.121,52.495 686.93,44.007 C658.094,25.456 603.914,14.382 542.758,38.601 C528.457,44.276 501.227,66.698 486.727,71.542 C473.859,75.847 460.629,73.034 448.852,77.585 C442.594,80.019 474.402,71.941 469.438,77.058 C451.801,95.202 507.672,91.597 513.844,91.362 C559.16,89.671 591.508,90.214 607.055,114.714 C626.57,145.457 582.766,185.769 582.766,185.769 C561.211,207.918 543.086,225.613 526.594,245.23 C498.82,278.261 517.961,333.386 484.711,366.441 C465.906,385.144 545.941,378.394 572.055,381.652 C618.441,387.457 570.574,390.515 607.246,372.933 C714.617,321.425 719.523,290.214 734.117,249.5 z" fill-opacity="0" stroke="#1A1919" stroke-width="7.087" stroke-linecap="round" stroke-linejoin="round"/>
    <path d="M542.449,259.461 C538.652,241.066 555.242,206.191 569.273,234.332" fill="#AEB378"/>
    <path d="M542.449,259.461 C538.652,241.066 555.242,206.191 569.273,234.332" fill-opacity="0" stroke="#1A1919" stroke-width="7.087" stroke-linecap="round" stroke-linejoin="round"/>
    <path d="M625.672,207.207 C649.363,207.769 703.949,229.75 714.125,250.984" fill="#AEB378"/>
    <path d="M625.672,207.207 C649.363,207.769 703.949,229.75 714.125,250.984" fill-opacity="0" stroke="#1A1919" stroke-width="7.087" stroke-linecap="round" stroke-linejoin="round"/>
    <path d="M640.664,181.597 C666.5,176.777 711.371,188.468 721.461,203.3" fill="#AEB378"/>
    <path d="M640.664,181.597 C666.5,176.777 711.371,188.468 721.461,203.3" fill-opacity="0" stroke="#1A1919" stroke-width="7.087" stroke-linecap="round" stroke-linejoin="round"/>
    <path d="M658.617,150.113 C670.59,148.464 706.477,146.48 726.812,159.668" fill="#AEB378"/>
    <path d="M658.617,150.113 C670.59,148.464 706.477,146.48 726.812,159.668" fill-opacity="0" stroke="#1A1919" stroke-width="7.087" stroke-linecap="round" stroke-linejoin="round"/>
    <path d="M652.773,116.855 C665.055,109.304 699.328,106.668 713.625,109.738" fill="#AEB378"/>
    <path d="M652.773,116.855 C665.055,109.304 699.328,106.668 713.625,109.738" fill-opacity="0" stroke="#1A1919" stroke-width="7.087" stroke-linecap="round" stroke-linejoin="round"/>
    <path d="M647.152,88.159 C654.953,81.269 684.867,74.995 698.48,76.073" fill="#AEB378"/>
    <path d="M647.152,88.159 C654.953,81.269 684.867,74.995 698.48,76.073" fill-opacity="0" stroke="#1A1919" stroke-width="7.087" stroke-linecap="round" stroke-linejoin="round"/>
    <path d="M617.715,63.62 C624.242,58.651 648.91,45.886 658.07,51.355" fill="#AEB378"/>
    <path d="M617.715,63.62 C624.242,58.651 648.91,45.886 658.07,51.355" fill-opacity="0" stroke="#1A1919" stroke-width="7.087" stroke-linecap="round" stroke-linejoin="round"/>
    <path d="M591.57,57.116 C605.602,36.698 616.539,37.429 623.977,35.855" fill="#AEB378"/>
    <path d="M591.57,57.116 C605.602,36.698 616.539,37.429 623.977,35.855" fill-opacity="0" stroke="#1A1919" stroke-width="7.087" stroke-linecap="round" stroke-linejoin="round"/>
    <path d="M559.242,244.109 L617.984,212.48 L609.594,197.23 L649.43,171.98 L630.617,163.621 L660.297,134.746 L639.133,133.863 L656.172,98.706 L636.125,99.792 L638.535,68.343 L617.867,77.058 L610.477,47.792 L596.469,68.234 L585.293,42.011 L573.078,60.308 L554.77,40.319 L547.164,64.499 L530.227,42.234 L520.805,68.55 L501.219,48.523 L491.332,68.39 L479.391,54.89 L465.043,72.847 L451.461,53.683 C451.461,53.683 444.398,63.499 437.82,70.698 C466.586,78.097 483.766,83.718 505.172,83.308 C515.453,83.112 573.023,76.706 588.031,80.319 C597.477,82.597 616.406,87.78 623.352,110.789 C633.793,145.332 618.609,161.921 614.184,172.613 C609.766,183.312 559.242,244.109 559.242,244.109" fill="#AEB378"/>
    <path d="M559.242,244.109 L617.984,212.48 L609.594,197.23 L649.43,171.98 L630.617,163.621 L660.297,134.746 L639.133,133.863 L656.172,98.706 L636.125,99.792 L638.535,68.343 L617.867,77.058 L610.477,47.792 L596.469,68.234 L585.293,42.011 L573.078,60.308 L554.77,40.319 L547.164,64.499 L530.227,42.234 L520.805,68.55 L501.219,48.523 L491.332,68.39 L479.391,54.89 L465.043,72.847 L451.461,53.683 C451.461,53.683 444.398,63.499 437.82,70.698 C466.586,78.097 483.766,83.718 505.172,83.308 C515.453,83.112 573.023,76.706 588.031,80.319 C597.477,82.597 616.406,87.78 623.352,110.789 C633.793,145.332 618.609,161.921 614.184,172.613 C609.766,183.312 559.242,244.109 559.242,244.109 z" fill-opacity="0" stroke="#1A1919" stroke-width="7.087" stroke-linecap="round" stroke-linejoin="round"/>
    <path d="M636.977,130.378 C638.051,104.578 631.215,95.566 614.965,80.398 C604.188,70.347 584.453,63.484 569.848,64.323 C551.66,65.37 544.594,70.237 526.32,71.987 C512.805,73.288 499.379,74.206 486.254,74.148 C470.336,74.069 464.004,74.714 444.055,73.214 C432.152,72.323 413.766,73.187 379.008,46.831 C426.398,91.628 470.883,92.964 513.844,91.362 C559.16,89.671 591.508,90.214 607.055,114.714 C626.57,145.457 582.766,185.769 582.766,185.769 C571.344,197.519 540.148,224.449 519.039,236.179 C508.727,241.902 527.328,240.183 545.356,247.703 C556.148,252.207 541.488,252.019 552.27,248.445 C563.859,244.597 593.195,215.882 602.828,203.211 C612.453,190.535 636.137,150.527 636.977,130.378" fill="#949F73"/>
    <path d="M636.977,130.378 C638.051,104.578 631.215,95.566 614.965,80.398 C604.188,70.347 584.453,63.484 569.848,64.323 C551.66,65.37 544.594,70.237 526.32,71.987 C512.805,73.288 499.379,74.206 486.254,74.148 C470.336,74.069 464.004,74.714 444.055,73.214 C432.152,72.323 413.766,73.187 379.008,46.831 C426.398,91.628 470.883,92.964 513.844,91.362 C559.16,89.671 591.508,90.214 607.055,114.714 C626.57,145.457 582.766,185.769 582.766,185.769 C571.344,197.519 540.148,224.449 519.039,236.179 C508.727,241.902 527.328,240.183 545.356,247.703 C556.148,252.207 541.488,252.019 552.27,248.445 C563.859,244.597 593.195,215.882 602.828,203.211 C612.453,190.535 636.137,150.527 636.977,130.378 z" fill-opacity="0" stroke="#1A1919" stroke-width="7.087" stroke-linecap="round" stroke-linejoin="round"/>
    <path d="M603.891,158.894 C610.289,150.449 624.602,144.277 633.664,143.027" fill="#AEB378"/>
    <path d="M603.891,158.894 C610.289,150.449 624.602,144.277 633.664,143.027" fill-opacity="0" stroke="#1A1919" stroke-width="7.087" stroke-linecap="round" stroke-linejoin="round"/>
    <path d="M612.188,127.48 C618.227,122.449 625.84,113.668 635.359,112.519" fill="#AEB378"/>
    <path d="M612.188,127.48 C618.227,122.449 625.84,113.668 635.359,112.519" fill-opacity="0" stroke="#1A1919" stroke-width="7.087" stroke-linecap="round" stroke-linejoin="round"/>
    <path d="M605.809,105.632 C610.688,98.237 616.016,94.136 622.648,87.335" fill="#AEB378"/>
    <path d="M605.809,105.632 C610.688,98.237 616.016,94.136 622.648,87.335" fill-opacity="0" stroke="#1A1919" stroke-width="7.087" stroke-linecap="round" stroke-linejoin="round"/>
    <path d="M584.188,95.148 C591.137,88.808 596.281,77.292 604.703,72.995" fill="#AEB378"/>
    <path d="M584.188,95.148 C591.137,88.808 596.281,77.292 604.703,72.995" fill-opacity="0" stroke="#1A1919" stroke-width="7.087" stroke-linecap="round" stroke-linejoin="round"/>
    <path d="M562.297,88.913 C564.106,82.378 574.121,68.718 579.148,64.722" fill="#AEB378"/>
    <path d="M562.297,88.913 C564.106,82.378 574.121,68.718 579.148,64.722" fill-opacity="0" stroke="#1A1919" stroke-width="7.087" stroke-linecap="round" stroke-linejoin="round"/>
    <path d="M546.023,68.433 C541.656,73.659 535.242,81.425 533.543,87.819" fill="#AEB378"/>
    <path d="M546.023,68.433 C541.656,73.659 535.242,81.425 533.543,87.819" fill-opacity="0" stroke="#1A1919" stroke-width="7.087" stroke-linecap="round" stroke-linejoin="round"/>
    <path d="M514.758,73.573 C506.266,76.323 503.859,82.987 504.77,92.612" fill="#AEB378"/>
    <path d="M514.758,73.573 C506.266,76.323 503.859,82.987 504.77,92.612" fill-opacity="0" stroke="#1A1919" stroke-width="7.087" stroke-linecap="round" stroke-linejoin="round"/>
    <path d="M481.289,74.827 C478.68,81.972 479.469,83.003 476.617,89.773" fill="#AEB378"/>
    <path d="M481.289,74.827 C478.68,81.972 479.469,83.003 476.617,89.773" fill-opacity="0" stroke="#1A1919" stroke-width="7.087" stroke-linecap="round" stroke-linejoin="round"/>
    <path d="M563,204.07 C575.383,198.503 586.828,199.945 599.109,203.718" fill="#AEB378"/>
    <path d="M563,204.07 C575.383,198.503 586.828,199.945 599.109,203.718" fill-opacity="0" stroke="#1A1919" stroke-width="7.087" stroke-linecap="round" stroke-linejoin="round"/>
    <path d="M588.945,178.621 C596.895,174.539 610.457,174.746 618.348,178.367" fill="#AEB378"/>
    <path d="M588.945,178.621 C596.895,174.539 610.457,174.746 618.348,178.367" fill-opacity="0" stroke="#1A1919" stroke-width="7.087" stroke-linecap="round" stroke-linejoin="round"/>
    <path d="M449.359,75.007 C448.07,76.98 447.914,82.769 451.891,87.273" fill="#AEB378"/>
    <path d="M449.359,75.007 C448.07,76.98 447.914,82.769 451.891,87.273" fill-opacity="0" stroke="#1A1919" stroke-width="7.087" stroke-linecap="round" stroke-linejoin="round"/>
    <g>
      <path d="M218.832,527.3 C253.051,496.062 336.312,346.824 309.945,321.296 C260.219,363.468 229.781,374.394 202.445,371.425 C185.797,369.605 127.504,364.89 105.301,374.675 C86.507,382.957 75.875,403.195 67.406,420.359 C58.543,438.312 50,475.261 48.328,498.601 C10.437,515.789 -4.805,551.082 4.351,570.261 C9.351,580.738 27.14,582.117 39.75,583.043 C29.609,564.238 27.66,550.222 45.293,537.703 C65.218,563.879 89.484,550.75 105.133,532.441 C112.477,536.871 118.852,534.316 136.852,518.386 C143.52,505.699 144.48,500.503 147.453,473.183 C176.473,512.937 197.297,546.961 218.832,527.3" fill="#AEB378"/>
      <path d="M141.152,505.398 C147.063,484.285 144.664,450.339 131.703,431.777 C129.563,436.828 125.629,440.359 119.781,441.441 C116.93,435.214 113.402,429.316 111.645,422.769 C112.621,426.402 93.023,457.027 81.242,456.628 C73.664,456.375 74.261,430.816 69.246,418.339 C43.312,462.285 50.629,466.464 48.328,498.601 C10.437,515.789 -4.805,551.082 4.351,570.261 C9.351,580.738 27.14,582.117 39.75,583.043 C29.609,564.238 27.66,550.222 45.293,537.703 C65.218,563.879 89.484,550.75 105.133,532.441 C112.477,536.871 118.852,534.316 136.852,518.386 C137.387,517.363 139.301,512 141.152,505.398" fill="#959D69"/>
      <path d="M218.832,527.3 C253.051,496.062 336.312,346.824 309.945,321.296 C260.219,363.468 229.781,374.394 202.445,371.425 C185.797,369.605 127.504,364.89 105.301,374.675 C86.507,382.957 75.875,403.195 67.406,420.359 C58.543,438.312 50,475.261 48.328,498.601 C-0.606,513.703 -1,550.785 8.148,569.968 C13.148,580.449 24.285,584.043 36.89,584.968 C26.75,566.16 25.644,547.449 36.89,532.449 C56.816,558.629 89.484,550.75 105.133,532.441 C112.477,536.871 118.852,534.316 136.852,518.386 C143.52,505.699 144.48,500.503 147.453,473.183 C168.441,515.738 197.297,546.961 218.832,527.3 z" fill-opacity="0" stroke="#1A1919" stroke-width="7.087" stroke-linecap="round" stroke-linejoin="round"/>
    </g>
    <path d="M38.07,521.882 C21.984,545.582 36.586,578.339 61.902,584.968 C58.531,564.043 57.765,542.718 77.113,536.707" fill="#93A06D"/>
    <path d="M38.07,521.882 C21.984,545.582 36.586,578.339 61.902,584.968 C58.531,564.043 57.765,542.718 77.113,536.707" fill-opacity="0" stroke="#1A1919" stroke-width="7.087" stroke-linecap="round" stroke-linejoin="round"/>
    <path d="M69.398,522.457 C58.57,539.293 58.851,571.167 86.894,582.453 C80.648,557.457 88.312,543.171 105.645,527.464" fill="#93A06D"/>
    <path d="M69.398,522.457 C58.57,539.293 58.851,571.167 86.894,582.453 C80.648,557.457 88.312,543.171 105.645,527.464" fill-opacity="0" stroke="#1A1919" stroke-width="7.087" stroke-linecap="round" stroke-linejoin="round"/>
    <path d="M94.183,520.058 C83.343,536.894 88.949,571.3 110.648,582.453 C108.344,571.257 108.805,552.023 114.398,541.207 C121.059,528.316 133.617,524.238 138.273,516.511" fill="#93A06D"/>
    <path d="M94.183,520.058 C83.343,536.894 88.949,571.3 110.648,582.453 C108.344,571.257 108.805,552.023 114.398,541.207 C121.059,528.316 133.617,524.238 138.273,516.511" fill-opacity="0" stroke="#1A1919" stroke-width="7.087" stroke-linecap="round" stroke-linejoin="round"/>
    <path d="M697.02,509.363 C673.305,462.175 640.293,366.972 697.25,329.656 C731,307.558 734.055,328.675 751.711,353.054 C784.953,398.964 832.375,427.566 843.348,456.543 C862.828,507.976 823.312,567.808 801.18,608.707 C795.758,618.718 805.164,574.855 794.965,581.793 C787.938,586.582 764.711,568.289 756.578,567.078 C730.789,563.234 708.078,531.363 697.02,509.363" fill="#AEB378"/>
    <path d="M740.297,519.832 C744.703,499.812 759.887,515.476 777.414,514.48 C796.344,513.406 791.449,516.195 804.445,503.953 C814.75,494.253 815.852,489.211 828.539,485.246 C827.805,476.699 821.578,460.957 831.098,456.136 C855.211,443.941 845.25,513.808 842.918,521.824 C833.906,552.859 816.438,580.515 801.18,608.707 C795.758,618.718 805.164,574.855 794.953,581.793 C787.547,586.832 765.316,571.707 759.328,567.402 C745.984,557.793 738.328,546.285 739.145,529.511 C739.328,525.617 739.719,522.429 740.297,519.832" fill="#959D69"/>
    <path d="M697.02,509.363 C673.305,462.175 640.293,366.972 697.25,329.656 C731,307.558 734.055,328.675 751.711,353.054 C784.953,398.964 832.375,427.566 843.348,456.543 C862.828,507.976 823.312,567.808 801.18,608.707 C795.758,618.718 805.164,574.855 794.965,581.793 C787.938,586.582 764.711,568.289 756.578,567.078 C730.789,563.234 708.078,531.363 697.02,509.363 z" fill-opacity="0" stroke="#1A1919" stroke-width="7.087" stroke-linecap="round" stroke-linejoin="round"/>
    <path d="M344.852,721.941 C412.23,753.043 517.414,759.605 576.961,733.769 C646.633,726.699 719.324,692.312 744.324,641.777 C769.637,590.632 778.039,560.515 786.879,504.695 C804.43,393.769 741.508,321.668 676.359,270.066 C632.336,235.183 548.297,227.121 487.41,235.496 C439.586,242.078 406.645,260.027 350.43,285.457 C306.195,318.445 256.586,337.05 232.711,395.855 C211.641,421.394 172.23,485.714 169.809,525.636 C167.492,563.824 185.422,602.535 222.992,631.035 C240.461,644.277 299.586,701.043 344.852,721.941" fill="#AEB378"/>
    <path d="M489.367,485.621 C494.145,471.16 477.414,464.136 464.539,460.711 C448.734,456.492 445.199,459.019 439.379,473.418 C435.375,483.347 424.434,489.304 412.641,493.066 C395.578,498.535 388.051,492.097 370.406,495.23 C339.508,500.711 366.625,520.554 386.426,520.394 C406.273,520.226 425.406,515.386 444.914,512.605 C445.723,512.496 482.992,504.929 489.367,485.621" fill="#8F9665"/>
    <path d="M327.359,484.605 C320,473.855 316.566,460.73 314.914,452.898 C312.836,443.066 317.871,427.871 326.633,418.261 C319.508,409.148 307.332,415.515 300.422,429.433 C294,442.378 295.141,466.246 303.699,477.781 C304.531,478.902 317.055,495.293 327.359,484.605" fill="#8F9665"/>
    <g>
      <path d="M398.117,707.714 C400.312,716.503 305.863,745.75 312.168,753.367 C341.898,789.293 517.582,778.925 581.801,756.648 C612.055,747.214 682.348,729.656 726.617,671.949 C767.32,618.879 800.082,481.425 784.648,424.253 C780.879,470.183 758.781,556.023 739.359,599.554 C725.797,629.949 703.344,641.582 691.047,645.73 C652.961,625.734 642.883,613.66 568.961,622.839 C528.531,606.753 495.531,598.925 450.5,613.914 C414.285,625.984 388.734,670.027 398.117,707.714" fill="#CCBD78"/>
      <path d="M399.656,711.207 C364.418,726.753 310.195,752.132 312.172,753.371 C404.391,811.207 518.141,786.214 581.82,756.648 C610.305,743.417 641.527,737.957 668.805,721.933 C686.508,711.531 701.773,698.863 716.191,684.332 C723.172,677.293 739.027,664.355 736.98,649.503 C725.359,662.886 691.539,686.035 674.121,681.699 C666.465,685.398 649.809,684.812 644.172,684.136 C631.566,682.613 617.336,678.328 604.691,682.793 C590.289,687.871 579.848,694.043 564.008,690.574 C552.047,687.957 544.445,674.98 536.203,671.949 C527.953,668.925 516.629,673.582 508.441,675.476 C481.344,681.753 454.551,690.074 428.379,699.05 C424.926,700.23 413.773,704.972 399.656,711.207" fill="#BCAA6D"/>
      <path d="M321.879,762.457 C419.391,797.464 529.391,797.464 626.215,737.078 C691.883,722.468 733.949,688.601 752.18,625.539 C763.844,585.222 775.785,584.402 786.879,504.695 C800.84,404.343 756.387,319.644 664.422,256.57 C618.09,224.8 545.801,227.441 484.922,235.828 C437.094,242.402 416.109,255.347 359.898,280.769 C312.633,304.113 253.664,352.605 230.531,404.566 C209.457,430.097 191.352,462.117 179.16,495.738 C175.922,504.683 159.781,550.57 180.617,579.671 C199.926,606.629 204.523,622.949 229.547,641.91 C254.898,661.14 275.316,745.746 321.879,762.457 z" fill-opacity="0" stroke="#1A1919" stroke-width="7.087" stroke-linecap="round" stroke-linejoin="round"/>
    </g>
    <path d="M814.211,526.16 C843.57,544.015 860.969,560.253 865.941,596.441 C869.652,623.382 867.758,658.433 860.852,693.875 C883.453,699.187 896.242,706.667 906.344,718.738 C915.781,730.046 914.965,757.082 901.469,769.05 C884.625,744.441 870.172,729.589 856.734,729.761 C868.852,764.265 871.125,780.789 849.82,797.191 C846.469,783.621 835.141,763.863 825.07,751.785 C821.422,774.167 821.309,797.73 801.488,800.457 C800.266,786.519 791.82,749.07 784.914,747.234 C775.34,744.667 765.512,770.722 755.688,791.609 C733.43,764.402 759.559,727.988 777.32,710.398 C755.562,680.605 755.641,638.535 756.234,618.261 C756.137,621.402 728.008,618.132 725.492,616.832 C717.133,612.519 715.578,613.738 713.129,604.968 C708.188,587.269 710.898,557.379 715.094,539.879 C719.082,523.269 723.562,491.062 743.469,485.566 C766.32,479.253 796.617,515.457 814.211,526.16" fill="#AEB378"/>
    <path d="M856.543,623.472 C861.555,621.414 866.57,621.355 869.414,625.621 C875.746,635.136 863.109,682.293 860.852,693.875 C883.453,699.187 896.242,706.667 906.344,718.738 C915.781,730.046 914.965,757.082 901.469,769.05 C884.625,744.441 870.172,729.589 856.734,729.761 C868.852,764.265 871.125,780.789 849.82,797.191 C846.469,783.621 835.141,763.863 825.07,751.785 C821.422,774.167 821.309,797.73 801.488,800.457 C800.266,786.519 791.82,749.07 784.914,747.234 C775.34,744.667 765.512,770.722 755.688,791.609 C733.43,764.402 759.559,727.988 777.312,710.398 C769.398,699.562 747.582,634.777 758.344,621.335 C767.699,628.316 774.613,653.003 786.918,657.785 C801.781,655.746 804.301,651.296 810.086,642.82 C819.531,648.816 814.242,665.488 824.094,671.324 C834.066,661.179 835.434,646.871 842.609,634.91 C845.094,630.8 850.809,625.828 856.543,623.472" fill="#959D69"/>
    <path d="M751.332,472.566 C771.488,496.707 788.102,510.285 814.211,526.16 C843.57,544.015 860.969,560.253 865.941,596.441 C869.652,623.382 867.758,658.433 860.852,693.875 C883.453,699.187 896.242,706.667 906.344,718.738 C915.781,730.046 914.965,757.082 901.469,769.05 C884.625,744.441 870.172,729.589 856.734,729.761 C868.852,764.265 871.125,780.789 849.82,797.191 C846.469,783.621 835.141,763.863 825.07,751.785 C821.422,774.167 821.309,797.73 801.488,800.457 C800.266,786.519 791.82,749.07 784.914,747.234 C775.34,744.667 765.512,770.722 755.688,791.609 C733.43,764.402 759.559,727.988 777.32,710.398 C755.562,680.597 755.645,638.523 756.234,618.25 C747.039,618.667 736.332,626.472 722.074,614.55 M581.672,284.761 C678.152,325.75 711.332,397 716.945,467.195 C721.227,520.785 718.453,549.125 714.008,580.335 C703.07,657.113 683.578,680.925 638.129,717.457" fill-opacity="0" stroke="#1A1919" stroke-width="7.087" stroke-linecap="round" stroke-linejoin="round"/>
    <path d="M118.422,725.808 C127.508,756.726 178.422,781.511 216.789,771.98 C254.82,762.519 291.75,748.199 329.008,736.199 C338.039,733.289 347.293,729.617 356.633,727.879 C364.625,726.375 372.594,727.808 379.836,723.55 C403.234,709.796 389.93,682.949 387.016,661.511 C384.395,642.175 383.227,617.566 376.41,599.082 C371.789,586.558 363.969,575.472 358.141,563.589 C351.414,549.89 335.445,538.496 325.273,527.011 C311.215,511.128 295.812,493.543 271.812,496.464 C265.613,497.214 257.09,498.113 252.516,502.335 C245.73,508.601 244.637,519.644 239.824,526.961 C233.57,536.464 222.617,541.863 213.469,548.035 C207.469,552.066 206.391,553.328 203.754,560.183 C202.484,563.472 200.219,574.988 197.465,576.933 C180.414,588.964 160.473,597.769 152.242,605.855 C122.84,634.746 105.344,681.296 118.422,725.808" fill="#AEB378"/>
    <path d="M118.422,725.808 C127.508,756.726 188.844,788.992 228.117,784.589 C271.977,779.667 333.508,770.621 365.238,762.753 C395.473,755.242 432.504,752.843 469.926,738.386 C508.492,723.484 547.348,696.308 570.344,673.503 C600.98,602.597 646.273,548.886 647.559,509.878 C648.402,484.253 621.371,467.117 592.203,477.625 C579.602,482.156 565.148,501.003 554.797,511.375 C539.133,527.05 511.32,516.824 493.414,529.917 C476.27,542.457 470.492,574.363 454.438,589.113 C437.008,605.125 413.141,632.355 393.109,644.644 C356.137,667.339 357.688,640.972 297.047,667.957 C284.555,673.519 270.422,693.863 251.156,701.179 C229.305,709.472 200.746,697.523 184.105,695.855 C162.867,693.742 146.465,666.453 126.547,668.199 C125.121,691.113 110.961,700.41 118.422,725.808" fill="#CCBD78"/>
    <path d="M197.117,577.39 C163.348,594.8 97.32,653.933 118.422,725.808 C127.508,756.726 182.906,786.855 222.426,785.886 C271,784.695 320.297,775.8 372.719,763.339 C434.234,748.699 499.797,736.8 545.125,691.863 C565.902,671.269 575.992,646.129 591.086,622.464 C616.195,583.105 640.695,545.379 644.984,521.386 C653.324,474.636 587.797,461.714 557.117,469.343 M246.594,740.89 C263.227,732.925 291.176,698.093 309.062,694.058 C330.055,689.293 371.594,705.035 387.445,689.167 C405.945,670.644 436.875,637.714 463.195,628.269 C494.262,617.132 491.852,594.214 507.637,567.441 C523.066,541.238 575.711,567.664 596.234,519.128" fill-opacity="0" stroke="#1A1919" stroke-width="7.087" stroke-linecap="round" stroke-linejoin="round"/>
    <path d="M210.121,457.847 C213.898,479.226 222.09,500.097 229.898,528.293 C243.883,515.203 250.902,503.55 267.75,491.558 C277.016,476.394 285.664,462.722 280.508,449.839 C275.395,437.089 270.238,432.507 272.559,416.441 C267.133,404.562 244.977,390.582 228.07,404.902 C215.641,415.437 208.148,446.714 210.121,457.847" fill="#CCBD78"/>
    <path d="M277.176,413.289 C263.113,396.711 231.488,393.082 222.387,409.476 C214.938,422.898 207.906,444.695 213.406,472.543 C216.313,487.234 221.07,506.793 231.059,530.671 M275.656,475.738 C263.43,472.39 255.461,463.378 250.18,437.175" fill-opacity="0" stroke="#1A1919" stroke-width="7.087" stroke-linecap="round" stroke-linejoin="round"/>
    <path d="M99.039,623.992 C75.945,644.527 98.351,697.832 124.008,718.734 C155.969,744.785 190.031,738.105 226.695,729.851 C241.191,726.585 249.34,728.535 255.016,712.64 C259.398,700.398 257.543,680.488 249.789,669.832 C241.375,658.261 227.672,654.203 216.242,646.621 C204.75,638.996 221.922,617.691 210.141,610.929 C149.859,576.316 117.531,607.507 99.039,623.992" fill="#AEB378"/>
    <path d="M93.597,632.011 C79.796,657.742 103.051,701.66 124.008,718.734 C155.969,744.785 193.063,749.394 229.73,741.129 C244.211,737.879 265.98,719.293 271.656,703.41 C275.453,692.765 281.734,694.41 276.957,680.808 C258.793,711.023 221.84,720.359 209.82,718.652 C194.809,716.527 178.715,710.863 163.324,707.605 C143.145,703.328 119.891,689.55 118.867,668.914 C118.234,656.156 116.977,667.488 109.988,653.3 C106.348,645.902 94.914,629.55 93.597,632.011" fill="#CCBD78"/>
    <path d="M233.422,621.191 C165.328,576.785 117.914,596.179 96.539,623.777 C77.601,648.23 91.855,692.804 124.008,718.734 C158.539,746.589 221.539,764.421 261.176,730.75" fill-opacity="0" stroke="#1A1919" stroke-width="7.087" stroke-linecap="round" stroke-linejoin="round"/>
    <path d="M169.313,695.136 C166.055,706.101 182.113,713.64 193.598,710.789 C208.945,706.972 220.223,697.039 214.828,690.332 C205.98,679.324 171.961,686.23 169.313,695.136" fill="#818659"/>
    <path d="M169.313,695.136 C166.055,706.101 182.113,713.64 193.598,710.789 C208.945,706.972 220.223,697.039 214.828,690.332 C205.98,679.324 171.961,686.23 169.313,695.136 z" fill-opacity="0" stroke="#1A1919" stroke-width="7.087" stroke-linecap="round" stroke-linejoin="round"/>
    <path d="M114.836,639.472 C104.594,667.441 129.824,673 136,640.671 C138.828,625.847 122.738,617.898 114.836,639.472" fill="#818659"/>
    <path d="M114.836,639.472 C104.594,667.441 129.824,673 136,640.671 C138.828,625.847 122.738,617.898 114.836,639.472 z M378.09,550.816 C366.406,520.878 322.023,488.718 280.082,498.679 M342.074,579.324 C318.992,530.769 282.984,529.003 247.516,540.175 M293.148,602.886 C283.078,582.027 225.105,566.82 195.684,579.277 M676.883,511.207 C668.129,451.207 653.977,421.511 621.879,378.707 C586.164,331.097 539.793,298.863 494.73,288.73 C416.617,271.152 285.18,324.707 252.191,366.257 M608.617,450.136 C521.508,293.875 380.492,308.222 290.234,349.242 M196.891,575.738 C201.141,555.046 210.301,543.339 234.602,531.863 C243.078,509.121 254.926,502.14 270.891,489.863 C283.465,452.793 292.074,448.261 290.902,402.996" fill-opacity="0" stroke="#1A1919" stroke-width="7.087" stroke-linecap="round" stroke-linejoin="round"/>
    <path d="M424.148,478.863 C446.672,495.964 415.328,518.785 407.195,496.335 C410.375,485.808 416.477,481.191 424.148,478.863" fill="#1A1919"/>
    <path d="M265.043,435.136 C259.172,429.226 236.578,434.07 234.758,444.359 M579.266,518.105 C590.062,511.531 603.859,517.027 607.727,529.324 M367.938,363.796 C413.48,352.48 486.711,383.796 501.82,407.625 M151.672,479.332 C144.223,461.863 140.227,457.351 133.289,431.394" fill-opacity="0" stroke="#1A1919" stroke-width="7.087" stroke-linecap="round" stroke-linejoin="round"/>
    <path d="M755.727,626.746 C754.867,611.296 757.973,588.152 765.25,561.503" fill="#AEB378"/>
    <path d="M755.727,626.746 C754.867,611.296 757.973,588.152 765.25,561.503" fill-opacity="0" stroke="#1A1919" stroke-width="7.087" stroke-linecap="round" stroke-linejoin="round"/>
    <path d="M444.195,352.468 C462.023,353.699 444.742,400.906 427.102,384.8 C417.645,376.168 430.703,351.546 444.195,352.468" fill="#AEB378"/>
    <path d="M419.234,381.972 C421.906,364.773 434.898,331.238 448.93,359.394" fill="#AEB378"/>
    <path d="M419.234,381.972 C421.906,364.773 434.898,331.238 448.93,359.394" fill-opacity="0" stroke="#1A1919" stroke-width="7.087" stroke-linecap="round" stroke-linejoin="round"/>
    <path d="M477.867,303.699 C495.695,304.929 478.414,352.128 460.773,336.023 C451.328,327.39 464.379,302.761 477.867,303.699" fill="#AEB378"/>
    <path d="M458.758,339.109 C451.762,324.941 468.734,283.683 482.766,311.828" fill="#AEB378"/>
    <path d="M458.758,339.109 C451.762,324.941 468.734,283.683 482.766,311.828" fill-opacity="0" stroke="#1A1919" stroke-width="7.087" stroke-linecap="round" stroke-linejoin="round"/>
    <path d="M521.898,266.085 C539.73,267.332 519.016,316.543 501.383,300.425 C491.93,291.793 508.414,265.152 521.898,266.085" fill="#AEB378"/>
    <path d="M498.898,300.769 C495.105,282.371 511.695,247.496 525.727,275.644" fill="#AEB378"/>
    <path d="M498.898,300.769 C495.105,282.371 511.695,247.496 525.727,275.644" fill-opacity="0" stroke="#1A1919" stroke-width="7.087" stroke-linecap="round" stroke-linejoin="round"/>
    <path d="M546.148,258.941 C542.344,240.539 558.934,205.66 572.961,233.808" fill="#AEB378"/>
    <path d="M546.148,258.941 C542.344,240.539 558.934,205.66 572.961,233.808" fill-opacity="0" stroke="#1A1919" stroke-width="7.087" stroke-linecap="round" stroke-linejoin="round"/>
    <path d="M361.789,342.332 C375.109,349.109 362.727,384.527 349.77,369.128 C343.906,362.171 349.508,336.062 361.789,342.332" fill="#AEB378"/>
    <path d="M348.348,368.168 C345.961,350.925 356.801,320.105 370.836,348.25" fill="#AEB378"/>
    <path d="M348.348,368.168 C345.961,350.925 356.801,320.105 370.836,348.25" fill-opacity="0" stroke="#1A1919" stroke-width="7.087" stroke-linecap="round" stroke-linejoin="round"/>
    <path d="M525.414,409.402 C541.781,415.773 525.148,451.777 509.523,436.746 C502.461,429.949 510.316,403.535 525.414,409.402" fill="#AEB378"/>
    <path d="M510.414,433.355 C508.023,416.121 519.949,387.253 536.477,415.058" fill="#AEB378"/>
    <path d="M510.414,433.355 C508.023,416.121 519.949,387.253 536.477,415.058" fill-opacity="0" stroke="#1A1919" stroke-width="7.087" stroke-linecap="round" stroke-linejoin="round"/>
    <path d="M572.578,377.691 C597.086,390.73 566.672,423.347 551.047,408.316 C543.988,401.519 558.285,370.085 572.578,377.691" fill="#AEB378"/>
    <path d="M556.766,403.441 C554.379,386.199 565.902,357.378 582.438,385.183" fill="#AEB378"/>
    <path d="M556.766,403.441 C554.379,386.199 565.902,357.378 582.438,385.183" fill-opacity="0" stroke="#1A1919" stroke-width="7.087" stroke-linecap="round" stroke-linejoin="round"/>
    <path d="M608.152,341.246 C624.531,347.613 607.898,383.613 592.281,368.582 C585.211,361.785 593.062,335.371 608.152,341.246" fill="#AEB378"/>
    <path d="M590.535,367.66 C588.145,350.418 602.699,319.089 619.234,346.894" fill="#AEB378"/>
    <path d="M590.535,367.66 C588.145,350.418 602.699,319.089 619.234,346.894" fill-opacity="0" stroke="#1A1919" stroke-width="7.087" stroke-linecap="round" stroke-linejoin="round"/>
    <path d="M693.688,275.203 C710.055,281.574 693.43,317.574 677.801,302.546 C670.734,295.738 678.586,269.332 693.688,275.203" fill="#AEB378"/>
    <path d="M676.07,301.628 C669.977,278.511 692.18,256.531 703.477,292.832" fill="#AEB378"/>
    <path d="M676.07,301.628 C669.977,278.511 692.18,256.531 703.477,292.832" fill-opacity="0" stroke="#1A1919" stroke-width="7.087" stroke-linecap="round" stroke-linejoin="round"/>
    <path d="M747.945,358.339 C762.172,363.601 747.539,393.902 734.004,381.347 C727.875,375.671 734.828,353.464 747.945,358.339" fill="#AEB378"/>
    <path d="M740.266,379.878 C735.066,360.503 752.25,344.578 766.234,372.937" fill="#AEB378"/>
    <path d="M740.266,379.878 C735.066,360.503 752.25,344.578 766.234,372.937" fill-opacity="0" stroke="#1A1919" stroke-width="7.087" stroke-linecap="round" stroke-linejoin="round"/>
    <path d="M701.664,371.296 C722.23,392.441 697.273,407.527 683.578,394.996 C677.387,389.324 691.812,361.16 701.664,371.296" fill="#AEB378"/>
    <path d="M682.051,394.23 C676.82,374.863 702.676,354.968 712.414,385.386" fill="#AEB378"/>
    <path d="M682.051,394.23 C676.82,374.863 702.676,354.968 712.414,385.386" fill-opacity="0" stroke="#1A1919" stroke-width="7.087" stroke-linecap="round" stroke-linejoin="round"/>
    <path d="M647.426,305.554 C663.793,311.921 647.164,347.925 631.539,332.894 C624.469,326.101 632.324,299.683 647.426,305.554" fill="#AEB378"/>
    <path d="M629.805,331.98 C627.406,314.734 641.957,283.406 658.492,311.199" fill="#AEB378"/>
    <path d="M629.805,331.98 C627.406,314.734 641.957,283.406 658.492,311.199" fill-opacity="0" stroke="#1A1919" stroke-width="7.087" stroke-linecap="round" stroke-linejoin="round"/>
    <path d="M389.887,308.171 C403.211,314.957 390.824,350.378 377.867,334.98 C372.016,328.011 377.602,301.91 389.887,308.171" fill="#AEB378"/>
    <path d="M376.449,334.011 C374.066,316.777 385.457,283.785 399.496,311.933" fill="#AEB378"/>
    <path d="M376.449,334.011 C374.066,316.777 385.457,283.785 399.496,311.933" fill-opacity="0" stroke="#1A1919" stroke-width="7.087" stroke-linecap="round" stroke-linejoin="round"/>
    <path d="M347.113,291.804 C351.371,293.964 356.984,301.863 356.812,307.285 C356.445,318.835 343.27,332.519 334.457,322.039 C328.598,315.085 334.824,285.535 347.113,291.804" fill="#AEB378"/>
    <path d="M333.035,321.082 C330.648,303.835 338.219,270.527 352.246,298.66" fill="#AEB378"/>
    <path d="M333.035,321.082 C330.648,303.835 338.219,270.527 352.246,298.66" fill-opacity="0" stroke="#1A1919" stroke-width="7.087" stroke-linecap="round" stroke-linejoin="round"/>
    <path d="M379.344,257.066 C386.133,260.527 391.711,271.55 387.582,280.339 C383.602,288.808 370.16,295.265 363.797,287.714 C357.934,280.75 367.055,250.808 379.344,257.066" fill="#AEB378"/>
    <path d="M365.18,282.585 C362.793,265.339 373.848,242.05 387.879,270.203" fill="#AEB378"/>
    <path d="M365.18,282.585 C362.793,265.339 373.848,242.05 387.879,270.203" fill-opacity="0" stroke="#1A1919" stroke-width="7.087" stroke-linecap="round" stroke-linejoin="round"/>
    <path d="M412.906,270.945 C424.711,277.937 414.438,313.066 402.805,297.48 C397.543,290.437 402.016,264.488 412.906,270.945" fill="#AEB378"/>
    <path d="M404.789,298.582 C398.246,283.074 408.156,248.691 420.945,277.011" fill="#AEB378"/>
    <path d="M404.789,298.582 C398.246,283.074 408.156,248.691 420.945,277.011" fill-opacity="0" stroke="#1A1919" stroke-width="7.087" stroke-linecap="round" stroke-linejoin="round"/>
    <path d="M443.34,238.16 C456.664,244.949 444.277,280.371 431.32,264.968 C425.457,258.003 431.055,231.902 443.34,238.16" fill="#AEB378"/>
    <path d="M429.898,264.011 C427.504,246.765 438.352,215.945 452.383,244.089" fill="#AEB378"/>
    <path d="M429.898,264.011 C427.504,246.765 438.352,215.945 452.383,244.089" fill-opacity="0" stroke="#1A1919" stroke-width="7.087" stroke-linecap="round" stroke-linejoin="round"/>
    <path d="M87.101,704.695 C89.406,697.105 92.453,691.074 98.601,686.843 C96.464,683.746 94.75,680.996 91.046,668.535 C78.296,667.722 76.742,699.097 87.101,704.695" fill="#FFFFFE"/>
    <path d="M87.101,704.695 C89.406,697.105 92.453,691.074 98.601,686.843 C96.464,683.746 94.75,680.996 91.046,668.535 C78.296,667.722 76.742,699.097 87.101,704.695 z" fill-opacity="0" stroke="#1A1919" stroke-width="7.087" stroke-linecap="round" stroke-linejoin="round"/>
    <path d="M165.477,769.332 C171.664,764.371 174.703,751.57 176.332,744.285 C180.016,745.113 182.461,749.851 195.414,748.652 C193.09,762.156 179.367,772.468 165.477,769.332" fill="#FFFFFE"/>
    <path d="M165.477,769.332 C171.664,764.371 174.703,751.57 176.332,744.285 C180.016,745.113 182.461,749.851 195.414,748.652 C193.09,762.156 179.367,772.468 165.477,769.332 z" fill-opacity="0" stroke="#1A1919" stroke-width="7.087" stroke-linecap="round" stroke-linejoin="round"/>
    <path d="M273.18,751.16 C272.945,743.238 265.047,737.246 260.211,731.558 C270.367,724.629 265.398,725.308 275.18,718.941 C281.059,729.043 280.516,743.417 273.18,751.16" fill="#FFFFFE"/>
    <path d="M273.18,751.16 C272.945,743.238 265.047,737.246 260.211,731.558 C270.367,724.629 265.398,725.308 275.18,718.941 C281.059,729.043 280.516,743.417 273.18,751.16 z" fill-opacity="0" stroke="#1A1919" stroke-width="7.087" stroke-linecap="round" stroke-linejoin="round"/>
    <path d="M304.031,663.629 C311.891,671.793 316.742,683.328 316.371,692.211 C306.449,693.996 306.586,694.402 298.891,699.667 C303.66,686.492 304.32,677.886 304.031,663.629" fill="#FFFFFE"/>
    <path d="M304.031,663.629 C311.891,671.793 316.742,683.328 316.371,692.211 C306.449,693.996 306.586,694.402 298.891,699.667 C303.66,686.492 304.32,677.886 304.031,663.629 z" fill-opacity="0" stroke="#1A1919" stroke-width="7.087" stroke-linecap="round" stroke-linejoin="round"/>
    <path d="M399.512,636.199 C410.07,640.308 417.492,646.91 420.879,655.125 C417.07,659.863 414.227,663.613 408.898,667.718 C407.711,653.757 405.746,649.019 399.512,636.199" fill="#FFFFFE"/>
    <path d="M399.512,636.199 C410.07,640.308 417.492,646.91 420.879,655.125 C417.07,659.863 414.227,663.613 408.898,667.718 C407.711,653.757 405.746,649.019 399.512,636.199 z" fill-opacity="0" stroke="#1A1919" stroke-width="7.087" stroke-linecap="round" stroke-linejoin="round"/>
    <path d="M473.461,580.593 C484.57,582.871 492.621,591.429 494.473,598.746 C491.516,604.058 490.719,606.714 486.164,611.675 C486.332,600.695 481.785,592.183 473.461,580.593" fill="#FFFFFE"/>
    <path d="M473.461,580.593 C484.57,582.871 492.621,591.429 494.473,598.746 C491.516,604.058 490.719,606.714 486.164,611.675 C486.332,600.695 481.785,592.183 473.461,580.593 z" fill-opacity="0" stroke="#1A1919" stroke-width="7.087" stroke-linecap="round" stroke-linejoin="round"/>
    <path d="M363.559,729.461 C361.469,723.445 362.621,703.796 360.512,696.667 C369.379,698.382 366.352,697.519 377.52,696.414 C378.852,707.859 373.09,726.062 363.559,729.461" fill="#FFFFFE"/>
    <path d="M363.559,729.461 C361.469,723.445 362.621,703.796 360.512,696.667 C369.379,698.382 366.352,697.519 377.52,696.414 C378.852,707.859 373.09,726.062 363.559,729.461 z" fill-opacity="0" stroke="#1A1919" stroke-width="7.087" stroke-linecap="round" stroke-linejoin="round"/>
    <path d="M457.727,661.839 C453.531,655.687 445.898,646.832 439.914,642.417 C449.039,637.941 445.008,638.129 451.492,634.941 C459.457,643.261 463.285,653.386 457.727,661.839" fill="#FFFFFE"/>
    <path d="M457.727,661.839 C453.531,655.687 445.898,646.832 439.914,642.417 C449.039,637.941 445.008,638.129 451.492,634.941 C459.457,643.261 463.285,653.386 457.727,661.839 z" fill-opacity="0" stroke="#1A1919" stroke-width="7.087" stroke-linecap="round" stroke-linejoin="round"/>
    <path d="M524.836,581.082 C520.641,574.941 516.781,568.964 510.797,564.55 C514.234,559.019 514.457,560.644 521.547,557.156 C529.512,565.476 530.406,572.636 524.836,581.082" fill="#FFFFFE"/>
    <path d="M524.836,581.082 C520.641,574.941 516.781,568.964 510.797,564.55 C514.234,559.019 514.457,560.644 521.547,557.156 C529.512,565.476 530.406,572.636 524.836,581.082 z" fill-opacity="0" stroke="#1A1919" stroke-width="7.087" stroke-linecap="round" stroke-linejoin="round"/>
    <path d="M318.102,463.171 C323.43,456.136 325.609,444.48 318.586,439.128 C299.848,440.457 293.832,473.238 318.102,463.171" fill="#1A1919"/>
    <path d="M313.387,383.07 C334.398,376.824 352.125,389.55 358.906,402.05 C366.734,416.531 371.578,429.382 388.109,430.828 C417.777,433.433 477.055,411.035 490.305,446.218" fill-opacity="0" stroke="#1A1919" stroke-width="7.087" stroke-linecap="round" stroke-linejoin="round"/>
    <path d="M327.906,415.144 C313.664,433.925 310.844,465.437 322.609,477.691" fill="#AEB378"/>
    <path d="M327.906,415.144 C313.664,433.925 310.844,465.437 322.609,477.691" fill-opacity="0" stroke="#1A1919" stroke-width="7.087" stroke-linecap="round" stroke-linejoin="round"/>
    <path d="M366.883,496.855 C396.176,507.957 437.32,485.886 443.977,461" fill="#AEB378"/>
    <path d="M366.883,496.855 C396.176,507.957 437.32,485.886 443.977,461" fill-opacity="0" stroke="#1A1919" stroke-width="7.087" stroke-linecap="round" stroke-linejoin="round"/>
  </g>
</svg>
